<svg xmlns="http://www.w3.org/2000/svg" viewBox="0 0 24 24" width="24" height="24" color="#279a39" fill="none">
    <path fill-rule="evenodd" clip-rule="evenodd" d="M12 1.25C17.9371 1.25 22.75 6.06294 22.75 12C22.75 17.9371 17.9371 22.75 12 22.75C6.06294 22.75 1.25 17.9371 1.25 12C1.25 6.06294 6.06294 1.25 12 1.25ZM12 2.75C6.89137 2.75 2.75 6.89137 2.75 12C2.75 17.1086 6.89137 21.25 12 21.25C17.1086 21.25 21.25 17.1086 21.25 12C21.25 6.89137 17.1086 2.75 12 2.75ZM12 6.75C12.414 6.7502 12.75 7.08591 12.75 7.5V15.1475C13.0919 14.8256 13.4674 14.4244 13.8291 14.0078C14.2517 13.5211 14.644 13.0317 14.9316 12.6631C15.075 12.4793 15.1919 12.3263 15.2725 12.2197C15.3127 12.1665 15.3443 12.1247 15.3652 12.0967L15.3945 12.0576L15.3955 12.0557C15.6412 11.7223 16.1109 11.651 16.4443 11.8965C16.7776 12.1421 16.8488 12.6109 16.6035 12.9443V12.9463L16.6016 12.9482C16.6 12.9504 16.5967 12.954 16.5938 12.958C16.5878 12.9661 16.5795 12.9782 16.5684 12.9932C16.5457 13.0236 16.512 13.0681 16.4697 13.124C16.3851 13.236 16.2632 13.3951 16.1143 13.5859C15.8168 13.9671 15.4072 14.4783 14.9619 14.9912C14.5198 15.5004 14.0272 16.0293 13.5664 16.4365C13.3369 16.6393 13.0967 16.8288 12.8613 16.9707C12.6466 17.1001 12.3403 17.2499 12 17.25C11.6597 17.25 11.3535 17.1001 11.1387 16.9707C10.9033 16.8288 10.6631 16.6393 10.4336 16.4365C9.97282 16.0294 9.48021 15.5004 9.03809 14.9912C8.5928 14.4783 8.1832 13.9671 7.88574 13.5859C7.73686 13.3952 7.61488 13.236 7.53027 13.124C7.48802 13.0681 7.45437 13.0237 7.43164 12.9932C7.42053 12.9783 7.41224 12.9661 7.40625 12.958C7.40332 12.954 7.4001 12.9504 7.39844 12.9482L7.39648 12.9463V12.9443C7.15091 12.6108 7.22216 12.1421 7.55566 11.8965C7.88884 11.6514 8.35679 11.7221 8.60254 12.0547L8.60449 12.0557L8.60547 12.0576L8.63477 12.0967C8.6557 12.1248 8.68735 12.1665 8.72754 12.2197C8.80809 12.3264 8.92499 12.4794 9.06836 12.6631C9.35603 13.0317 9.74833 13.5211 10.1709 14.0078C10.5326 14.4244 10.9081 14.8256 11.25 15.1475V7.5C11.25 7.08579 11.5858 6.75 12 6.75Z" fill="currentColor" />
</svg>