<svg xmlns="http://www.w3.org/2000/svg" viewBox="0 0 24 24" width="24" height="24" color="#bd3033" fill="none">
    <path fill-rule="evenodd" clip-rule="evenodd" d="M9.95996 20.5699C10.57 21.0199 11.29 21.25 12 21.25C12.72 21.25 13.43 21.0299 14.04 20.5699C16.66 18.6099 22.75 13.5299 22.75 8.68994C22.75 5.35994 20.22 2.75 17 2.75C15.21 2.75 13.69 3.41996 12 4.95996C10.31 3.41996 8.79 2.75 7 2.75C3.78 2.75 1.25 5.35994 1.25 8.68994C1.25 13.5299 7.33996 18.6099 9.95996 20.5699ZM13.14 19.37C12.46 19.88 11.54 19.88 10.86 19.37C8.95999 17.95 2.75 12.9699 2.75 8.68994C2.75 6.15994 4.58 4.25 7 4.25C8.12911 4.25 9.44457 4.5247 11.4128 6.47317L13.0601 8.93907L10.9201 11.5091C10.6801 11.8091 10.7 12.2491 10.97 12.5191L12.59 14.1391L11.83 15.6592C11.65 16.0292 11.8001 16.4792 12.1701 16.6692C12.2701 16.7192 12.3901 16.7491 12.5001 16.7491C12.7701 16.7491 13.0401 16.5991 13.1701 16.3391L14.1701 14.3391C14.3201 14.0491 14.2601 13.6991 14.0301 13.4691L12.5101 11.9491L14.57 9.47911C14.79 9.21911 14.8001 8.85908 14.6201 8.57908L12.9714 6.10614C14.7296 4.48937 15.946 4.25 17 4.25C19.42 4.25 21.25 6.15994 21.25 8.68994C21.25 12.9699 15.04 17.95 13.14 19.37Z" fill="currentColor" />
</svg>