<svg xmlns="http://www.w3.org/2000/svg" viewBox="0 0 24 24" width="24" height="24" color="#dad8d8" fill="none">
    <defs />
    <path fill="currentColor" d="M15.851,2.477 C16.14,2.18 16.615,2.174 16.912,2.462 L17.914,3.438 L17.946,3.469 C18.142,3.66 18.343,3.855 18.479,4.031 C18.601,4.189 18.889,4.605 18.674,5.109 C18.465,5.602 17.976,5.693 17.78,5.72 C17.56,5.75 17.277,5.75 16.999,5.75 L16.955,5.75 L9.194,5.75 C5.616,5.75 2.75,8.567 2.75,12 C2.75,13.324 3.174,14.551 3.899,15.563 C4.14,15.9 4.063,16.368 3.726,16.61 C3.39,16.851 2.921,16.774 2.68,16.437 C1.78,15.181 1.25,13.651 1.25,12 C1.25,7.701 4.826,4.25 9.194,4.25 L16.598,4.25 L15.865,3.538 C15.568,3.249 15.562,2.774 15.851,2.477 Z M20.273,7.39 C20.61,7.149 21.078,7.226 21.32,7.563 C22.22,8.819 22.75,10.349 22.75,12 C22.75,16.299 19.173,19.75 14.805,19.75 L7.402,19.75 L8.134,20.462 C8.431,20.751 8.438,21.226 8.149,21.523 C7.86,21.82 7.385,21.826 7.088,21.538 L6.085,20.562 L6.054,20.531 C5.858,20.34 5.656,20.145 5.521,19.969 C5.399,19.811 5.111,19.395 5.325,18.891 C5.535,18.398 6.023,18.307 6.22,18.28 C6.44,18.25 6.723,18.25 7.001,18.25 L14.805,18.25 C18.384,18.25 21.25,15.433 21.25,12 C21.25,10.676 20.826,9.449 20.101,8.437 C19.859,8.1 19.937,7.632 20.273,7.39 Z M9,11.25 L15,11.25 C15.414,11.25 15.75,11.586 15.75,12 C15.75,12.414 15.414,12.75 15,12.75 L9,12.75 C8.586,12.75 8.25,12.414 8.25,12 C8.25,11.586 8.586,11.25 9,11.25 Z" />
</svg>