<svg xmlns="http://www.w3.org/2000/svg" viewBox="0 0 24 24" width="24" height="24" color="#dad8d8" fill="none">
    <defs />
    <path fill="currentColor" d="M12.057,1.75 L12.057,1.75 C14.248,1.75 15.969,1.75 17.312,1.931 C18.689,2.116 19.781,2.503 20.639,3.361 C21.497,4.219 21.884,5.311 22.069,6.688 C22.25,8.031 22.25,9.752 22.25,11.943 L22.25,12.057 C22.25,14.248 22.25,15.969 22.069,17.312 C21.884,18.689 21.497,19.781 20.639,20.639 C19.781,21.497 18.689,21.884 17.312,22.069 C15.969,22.25 14.248,22.25 12.057,22.25 L11.943,22.25 C9.752,22.25 8.031,22.25 6.688,22.069 C5.311,21.884 4.219,21.497 3.361,20.639 C2.503,19.781 2.116,18.689 1.931,17.312 C1.75,15.969 1.75,14.248 1.75,12.057 L1.75,11.943 C1.75,9.752 1.75,8.031 1.931,6.688 C2.116,5.311 2.503,4.219 3.361,3.361 C4.219,2.503 5.311,2.116 6.688,1.931 C8.031,1.75 9.752,1.75 11.943,1.75 L12.057,1.75 Z M6.888,3.417 C5.678,3.58 4.955,3.889 4.422,4.422 C3.889,4.955 3.58,5.678 3.417,6.888 C3.252,8.12 3.25,9.74 3.25,12 C3.25,14.26 3.252,15.88 3.417,17.112 C3.58,18.322 3.889,19.045 4.422,19.578 C4.955,20.111 5.678,20.42 6.888,20.583 C8.12,20.748 9.74,20.75 12,20.75 C14.26,20.75 15.88,20.748 17.112,20.583 C18.322,20.42 19.045,20.111 19.578,19.578 C20.111,19.045 20.42,18.322 20.583,17.112 C20.748,15.88 20.75,14.26 20.75,12 C20.75,9.74 20.748,8.12 20.583,6.888 C20.42,5.678 20.111,4.955 19.578,4.422 C19.045,3.889 18.322,3.58 17.112,3.417 C15.88,3.252 14.26,3.25 12,3.25 C9.74,3.25 8.12,3.252 6.888,3.417 Z M18.75,18 C18.75,18.414 18.414,18.75 18,18.75 L10,18.75 C9.586,18.75 9.25,18.414 9.25,18 C9.25,17.586 9.586,17.25 10,17.25 L18,17.25 C18.414,17.25 18.75,17.586 18.75,18 Z M15,13.25 L18,13.25 C18.414,13.25 18.75,13.586 18.75,14 C18.75,14.414 18.414,14.75 18,14.75 L15,14.75 C14.586,14.75 14.25,14.414 14.25,14 C14.25,13.586 14.586,13.25 15,13.25 Z M10,13.25 L12,13.25 C12.414,13.25 12.75,13.586 12.75,14 C12.75,14.414 12.414,14.75 12,14.75 L10,14.75 C9.586,14.75 9.25,14.414 9.25,14 C9.25,13.586 9.586,13.25 10,13.25 Z" />
</svg>